<svg xmlns="http://www.w3.org/2000/svg" version="1.1" xmlns:xlink="http://www.w3.org/1999/xlink" xmlns:svgjs="http://svgjs.dev/svgjs" width="1500" height="939" viewBox="0 0 1500 939"><g transform="matrix(1,0,0,1,-0.9090909090909918,163.15635300586507)"><svg viewBox="0 0 396 248" data-background-color="#ffffff" preserveAspectRatio="xMidYMid meet" height="939" width="1500" xmlns="http://www.w3.org/2000/svg" xmlns:xlink="http://www.w3.org/1999/xlink"><g id="tight-bounds" transform="matrix(1,0,0,1,0.2400000000000091,0.4000000000000057)"><svg viewBox="0 0 395.52 247.2" height="247.2" width="395.52"><g><svg></svg></g><g><svg viewBox="0 0 395.52 247.2" height="247.2" width="395.52"><g transform="matrix(1,0,0,1,75.54432,67.91210279982425)"><svg viewBox="0 0 244.43135999999998 111.37579440035148" height="111.37579440035148" width="244.43135999999998"><g><svg viewBox="0 0 244.43135999999998 111.37579440035148" height="111.37579440035148" width="244.43135999999998"><g transform="matrix(1,0,0,1,0,66.99108688204343)"><svg viewBox="0 0 244.43135999999998 44.38470751830805" height="44.38470751830805" width="244.43135999999998"><g id="textblocktransform"><svg viewBox="0 0 244.43135999999998 44.38470751830805" height="44.38470751830805" width="244.43135999999998" id="textblock"><g><svg viewBox="0 0 244.43135999999998 23.938990374886494" height="23.938990374886494" width="244.43135999999998"><g transform="matrix(1,0,0,1,0,0)"><svg width="244.43135999999998" viewBox="1.55 -37.5 385.40999999999997 37.75" height="23.938990374886494" data-palette-color="#b2bbda"><path d="M11-32.85L11-8.4Q11-6.25 11.75-5.48 12.5-4.7 13.85-4.7L13.85-4.7Q14.75-4.7 15.73-5 16.7-5.3 17.85-5.9L17.85-5.9 19.3-1.75Q17.75-0.8 16.1-0.28 14.45 0.25 12.75 0.25L12.75 0.25Q10.75 0.25 9.05-0.53 7.35-1.3 6.33-3 5.3-4.7 5.3-7.4L5.3-7.4 5.3-32.85 11-32.85ZM1.55-21.5L1.55-25.6 18.85-25.6 18.85-21.5 1.55-21.5ZM24.6 0L24.6-26.55 30.3-26.55 30.3 0 24.6 0ZM27.45-37.5L27.45-37.5Q28.9-37.5 29.85-36.55 30.8-35.6 30.8-34.15L30.8-34.15Q30.8-32.75 29.85-31.78 28.9-30.8 27.45-30.8L27.45-30.8Q26.05-30.8 25.07-31.78 24.1-32.75 24.1-34.15L24.1-34.15Q24.1-35.6 25.07-36.55 26.05-37.5 27.45-37.5ZM58.15 0L58.15-15Q58.15-18.15 56.5-19.93 54.84-21.7 51.9-21.7L51.9-21.7Q48.45-21.6 46.47-19.15 44.5-16.7 44.5-13.1L44.5-13.1 42.9-13.1Q42.9-18 44.27-21 45.65-24 48.17-25.38 50.7-26.75 54.15-26.75L54.15-26.75Q57.2-26.75 59.37-25.5 61.55-24.25 62.72-21.98 63.9-19.7 63.9-16.5L63.9-16.5 63.9 0 58.15 0ZM77.5 0L77.5-15Q77.5-18.15 75.82-19.93 74.15-21.7 71.19-21.7L71.19-21.7Q67.8-21.6 65.84-19.15 63.9-16.7 63.9-13.1L63.9-13.1 62.25-13.1Q62.25-18 63.62-21 65-24 67.52-25.38 70.05-26.75 73.5-26.75L73.5-26.75Q76.55-26.75 78.72-25.5 80.9-24.25 82.07-21.98 83.25-19.7 83.25-16.5L83.25-16.5 83.25 0 77.5 0ZM38.8 0L38.8-26.55 44.5-26.55 44.5 0 38.8 0ZM93.09-15.2L109.34-15.2Q109.24-17.45 108.32-19.03 107.39-20.6 105.74-21.48 104.09-22.35 101.94-22.35L101.94-22.35Q99.54-22.35 97.77-21.25 95.99-20.15 94.99-18.18 93.99-16.2 93.99-13.55L93.99-13.55Q93.99-10.7 95.07-8.6 96.14-6.5 98.07-5.35 99.99-4.2 102.49-4.2L102.49-4.2Q106.94-4.2 109.99-7.35L109.99-7.35 113.04-4.3Q111.09-2.15 108.29-0.98 105.49 0.2 102.04 0.2L102.04 0.2Q97.94 0.2 94.89-1.5 91.84-3.2 90.14-6.23 88.44-9.25 88.44-13.25L88.44-13.25Q88.44-17.25 90.14-20.28 91.84-23.3 94.89-25 97.94-26.7 101.89-26.75L101.89-26.75Q106.59-26.75 109.44-24.83 112.29-22.9 113.49-19.4 114.69-15.9 114.34-11.1L114.34-11.1 93.09-11.1 93.09-15.2ZM134.94 0L134.94-28.2Q134.94-31.35 136.26-33.38 137.59-35.4 139.69-36.38 141.79-37.35 144.09-37.35L144.09-37.35Q145.29-37.35 146.51-37.02 147.74-36.7 148.79-36.15L148.79-36.15 147.59-31.75Q146.89-32.05 146.01-32.33 145.14-32.6 144.24-32.6L144.24-32.6Q143.29-32.6 142.46-32.23 141.64-31.85 141.14-31.03 140.64-30.2 140.64-28.9L140.64-28.9 140.64 0 134.94 0ZM131.44-21.5L131.44-25.6 147.59-25.6 147.59-21.5 131.44-21.5ZM162.99-26.75L162.99-26.75Q167.09-26.75 170.21-25.05 173.34-23.35 175.09-20.33 176.84-17.3 176.84-13.3L176.84-13.3Q176.84-9.3 175.09-6.25 173.34-3.2 170.21-1.5 167.09 0.2 162.99 0.2L162.99 0.2Q158.89 0.2 155.74-1.5 152.59-3.2 150.84-6.25 149.09-9.3 149.09-13.3L149.09-13.3Q149.09-17.3 150.84-20.33 152.59-23.35 155.74-25.05 158.89-26.75 162.99-26.75ZM162.99-22.1L162.99-22.1Q160.59-22.1 158.74-20.98 156.89-19.85 155.86-17.85 154.84-15.85 154.84-13.25L154.84-13.25Q154.84-10.6 155.86-8.6 156.89-6.6 158.74-5.48 160.59-4.35 162.99-4.35L162.99-4.35Q165.39-4.35 167.21-5.48 169.04-6.6 170.06-8.6 171.09-10.6 171.09-13.25L171.09-13.25Q171.09-15.85 170.06-17.85 169.04-19.85 167.21-20.98 165.39-22.1 162.99-22.1ZM197.78-26.75L197.78-21.55Q194.93-21.7 192.86-20.58 190.78-19.45 189.66-17.45 188.53-15.45 188.53-12.85L188.53-12.85 186.93-13.05Q186.93-17.5 188.23-20.55 189.53-23.6 191.98-25.18 194.43-26.75 197.78-26.75L197.78-26.75ZM182.83 0L182.83-26.55 188.58-26.55 188.58 0 182.83 0ZM235.38 0L235.38-15Q235.38-18.15 233.73-19.93 232.08-21.7 229.13-21.7L229.13-21.7Q225.68-21.6 223.7-19.15 221.73-16.7 221.73-13.1L221.73-13.1 220.13-13.1Q220.13-18 221.5-21 222.88-24 225.4-25.38 227.93-26.75 231.38-26.75L231.38-26.75Q234.43-26.75 236.6-25.5 238.78-24.25 239.95-21.98 241.13-19.7 241.13-16.5L241.13-16.5 241.13 0 235.38 0ZM254.73 0L254.73-15Q254.73-18.15 253.05-19.93 251.38-21.7 248.43-21.7L248.43-21.7Q245.03-21.6 243.08-19.15 241.13-16.7 241.13-13.1L241.13-13.1 239.48-13.1Q239.48-18 240.85-21 242.23-24 244.75-25.38 247.28-26.75 250.73-26.75L250.73-26.75Q253.78-26.75 255.95-25.5 258.13-24.25 259.3-21.98 260.48-19.7 260.48-16.5L260.48-16.5 260.48 0 254.73 0ZM216.03 0L216.03-26.55 221.73-26.55 221.73 0 216.03 0ZM279.57-26.75L279.57-26.75Q283.68-26.75 286.8-25.05 289.93-23.35 291.68-20.33 293.43-17.3 293.43-13.3L293.43-13.3Q293.43-9.3 291.68-6.25 289.93-3.2 286.8-1.5 283.68 0.2 279.57 0.2L279.57 0.2Q275.48 0.2 272.32-1.5 269.18-3.2 267.43-6.25 265.68-9.3 265.68-13.3L265.68-13.3Q265.68-17.3 267.43-20.33 269.18-23.35 272.32-25.05 275.48-26.75 279.57-26.75ZM279.57-22.1L279.57-22.1Q277.18-22.1 275.32-20.98 273.48-19.85 272.45-17.85 271.43-15.85 271.43-13.25L271.43-13.25Q271.43-10.6 272.45-8.6 273.48-6.6 275.32-5.48 277.18-4.35 279.57-4.35L279.57-4.35Q281.98-4.35 283.8-5.48 285.63-6.6 286.65-8.6 287.68-10.6 287.68-13.25L287.68-13.25Q287.68-15.85 286.65-17.85 285.63-19.85 283.8-20.98 281.98-22.1 279.57-22.1ZM305.52 0L295.22-26.55 301.22-26.55 308.62-5.3 315.92-26.55 321.67-26.55 311.47 0 305.52 0ZM325.67 0L325.67-26.55 331.37-26.55 331.37 0 325.67 0ZM328.52-37.5L328.52-37.5Q329.97-37.5 330.92-36.55 331.87-35.6 331.87-34.15L331.87-34.15Q331.87-32.75 330.92-31.78 329.97-30.8 328.52-30.8L328.52-30.8Q327.12-30.8 326.15-31.78 325.17-32.75 325.17-34.15L325.17-34.15Q325.17-35.6 326.15-36.55 327.12-37.5 328.52-37.5ZM342.02-15.2L358.27-15.2Q358.17-17.45 357.24-19.03 356.32-20.6 354.67-21.48 353.02-22.35 350.87-22.35L350.87-22.35Q348.47-22.35 346.69-21.25 344.92-20.15 343.92-18.18 342.92-16.2 342.92-13.55L342.92-13.55Q342.92-10.7 343.99-8.6 345.07-6.5 346.99-5.35 348.92-4.2 351.42-4.2L351.42-4.2Q355.87-4.2 358.92-7.35L358.92-7.35 361.97-4.3Q360.02-2.15 357.22-0.98 354.42 0.2 350.97 0.2L350.97 0.2Q346.87 0.2 343.82-1.5 340.77-3.2 339.07-6.23 337.37-9.25 337.37-13.25L337.37-13.25Q337.37-17.25 339.07-20.28 340.77-23.3 343.82-25 346.87-26.7 350.82-26.75L350.82-26.75Q355.52-26.75 358.37-24.83 361.22-22.9 362.42-19.4 363.62-15.9 363.27-11.1L363.27-11.1 342.02-11.1 342.02-15.2ZM386.51-24.15L384.41-20.1Q382.66-21.15 380.59-21.78 378.51-22.4 376.76-22.4L376.76-22.4Q375.06-22.4 373.96-21.75 372.87-21.1 372.87-19.6L372.87-19.6Q372.87-18.35 373.89-17.63 374.91-16.9 376.51-16.4 378.12-15.9 379.91-15.35 381.71-14.8 383.34-13.93 384.96-13.05 385.96-11.55 386.96-10.05 386.96-7.6L386.96-7.6Q386.96-4.9 385.54-3.18 384.12-1.45 381.79-0.63 379.46 0.2 376.76 0.2L376.76 0.2Q373.87 0.2 370.96-0.75 368.06-1.7 366.06-3.5L366.06-3.5 368.12-7.4Q369.87-5.85 372.37-4.98 374.87-4.1 377.01-4.1L377.01-4.1Q378.26-4.1 379.24-4.42 380.21-4.75 380.79-5.4 381.37-6.05 381.37-7.1L381.37-7.1Q381.37-8.5 380.37-9.3 379.37-10.1 377.76-10.63 376.16-11.15 374.37-11.68 372.56-12.2 370.99-13.05 369.41-13.9 368.41-15.35 367.41-16.8 367.41-19.2L367.41-19.2Q367.41-21.9 368.81-23.58 370.21-25.25 372.44-26.03 374.66-26.8 377.21-26.8L377.21-26.8Q379.71-26.8 382.21-26.1 384.71-25.4 386.51-24.15L386.51-24.15Z" opacity="1" transform="matrix(1,0,0,1,0,0)" fill="#b2bbda" class="wordmark-text-0" data-fill-palette-color="primary" id="text-0"></path></svg></g></svg></g><g transform="matrix(1,0,0,1,0,29.590411466628197)"><svg viewBox="0 0 244.43135999999998 14.794296051679853" height="14.794296051679853" width="244.43135999999998"><g transform="matrix(1,0,0,1,0,0)"><svg width="244.43135999999998" viewBox="4.25 -36 760.01 46" height="14.794296051679853" data-palette-color="#b2bbda"><path d="M27.2-35L27.2-31.5 8.25-31.5 8.25-19.55 22.5-19.55 22.5-16.05 8.25-16.05 8.25-3.5 27.2-3.5 27.2 0 4.25 0 4.25-35 27.2-35ZM54.05-12.55L45.4-25 49.7-25 56.1-15.45 62.5-25 66.85-25 58.2-12.55 66.85 0 62.5 0 56.1-9.65 49.7 0 45.4 0 54.05-12.55ZM88.99-5.05L88.99-5.05 89.39-5.1 89.39 10 85.64 10 85.64-25 89.09-25 89.34-20.35Q90.49-22.45 92.74-23.9 94.99-25.35 98.39-25.35L98.39-25.35Q101.64-25.35 104.24-23.78 106.84-22.2 108.34-19.33 109.84-16.45 109.84-12.5L109.84-12.5Q109.84-8.6 108.42-5.73 106.99-2.85 104.42-1.25 101.84 0.35 98.39 0.35L98.39 0.35Q94.79 0.35 92.44-1.2 90.09-2.75 88.99-5.05ZM105.79-12.5L105.79-12.5Q105.79-16.8 103.57-19.33 101.34-21.85 97.59-21.85L97.59-21.85Q95.24-21.85 93.37-20.75 91.49-19.65 90.44-17.55 89.39-15.45 89.39-12.5L89.39-12.5Q89.39-9.6 90.44-7.5 91.49-5.4 93.37-4.28 95.24-3.15 97.59-3.15L97.59-3.15Q101.34-3.15 103.57-5.68 105.79-8.2 105.79-12.5ZM129.34 0L129.34-36 133.09-36 133.09 0 129.34 0ZM164.93 0.35L164.93 0.35Q161.38 0.35 158.58-1.2 155.78-2.75 154.18-5.63 152.58-8.5 152.58-12.45L152.58-12.45Q152.58-16.45 154.21-19.35 155.83-22.25 158.66-23.8 161.48-25.35 165.03-25.35L165.03-25.35Q168.58-25.35 171.41-23.8 174.23-22.25 175.86-19.38 177.48-16.5 177.48-12.55L177.48-12.55Q177.48-8.55 175.83-5.65 174.18-2.75 171.33-1.2 168.48 0.35 164.93 0.35ZM164.88-3.2L164.88-3.2Q167.08-3.2 169.03-4.17 170.98-5.15 172.21-7.23 173.43-9.3 173.43-12.5L173.43-12.5Q173.43-15.75 172.23-17.8 171.03-19.85 169.11-20.83 167.18-21.8 164.98-21.8L164.98-21.8Q162.78-21.8 160.88-20.83 158.98-19.85 157.81-17.78 156.63-15.7 156.63-12.5L156.63-12.5Q156.63-9.25 157.78-7.2 158.93-5.15 160.81-4.17 162.68-3.2 164.88-3.2ZM197.03 0L197.03-25 200.48-25 200.68-21.35Q201.68-22.7 203.1-23.65 204.53-24.6 206.25-24.98 207.98-25.35 209.93-25L209.93-25 209.93-21.25Q207.83-21.65 206.15-21.25 204.48-20.85 203.28-19.75 202.08-18.65 201.43-16.98 200.78-15.3 200.78-13.1L200.78-13.1 200.78 0 197.03 0ZM238.42 0.35L238.42 0.35Q234.92 0.35 232.2-1.35 229.47-3.05 227.92-6 226.37-8.95 226.37-12.75L226.37-12.75Q226.37-16.4 227.92-19.25 229.47-22.1 232.17-23.73 234.87-25.35 238.32-25.35L238.32-25.35Q241.72-25.35 244.4-23.85 247.07-22.35 248.57-19.7 250.07-17.05 249.97-13.65L249.97-13.65Q249.97-13.1 249.92-12.5 249.87-11.9 249.82-11.2L249.82-11.2 230.47-11.2Q230.57-8.85 231.62-7.05 232.67-5.25 234.4-4.23 236.12-3.2 238.32-3.2L238.32-3.2Q241.22-3.2 243.25-4.3 245.27-5.4 246.17-7.45L246.17-7.45 249.42-6.15Q247.92-3 245.07-1.33 242.22 0.35 238.42 0.35ZM230.52-14.45L245.87-14.45Q245.92-16.6 244.95-18.25 243.97-19.9 242.22-20.85 240.47-21.8 238.17-21.8L238.17-21.8Q236.17-21.8 234.52-20.85 232.87-19.9 231.8-18.23 230.72-16.55 230.52-14.45L230.52-14.45ZM266.07 7.25L269.77-6.05 274.17-6.05 268.77 7.25 266.07 7.25ZM342.41-29L333.81 0 329.41 0 319.56-35 323.81-35 331.61-4.85 340.21-35 344.66-35 353.21-4.9 361.06-35 365.26-35 355.41 0 351.01 0 342.41-29ZM401.06 0L397.61 0 397.31-4.5Q396.26-2.2 394.21-0.93 392.16 0.35 389.01 0.35L389.01 0.35Q386.31 0.35 384.41-0.5 382.51-1.35 381.48-2.93 380.46-4.5 380.46-6.65L380.46-6.65Q380.46-9.8 382.81-11.83 385.16-13.85 389.61-14.3L389.61-14.3 397.31-15.15 397.31-17.15Q397.31-19.25 395.76-20.53 394.21-21.8 391.56-21.8L391.56-21.8Q388.96-21.8 387.23-20.6 385.51-19.4 384.86-17.15L384.86-17.15 381.46-18.35Q382.46-21.65 385.13-23.5 387.81-25.35 391.66-25.35L391.66-25.35Q396.11-25.35 398.58-23.08 401.06-20.8 401.06-16.9L401.06-16.9 401.06 0ZM397.31-11.15L397.31-11.95 389.56-11.05Q387.06-10.75 385.76-9.68 384.46-8.6 384.46-6.85L384.46-6.85Q384.46-5.1 385.73-4.05 387.01-3 389.41-3L389.41-3Q392.16-3 393.91-4.1 395.66-5.2 396.48-7.08 397.31-8.95 397.31-11.15L397.31-11.15ZM419.6-25L423.35-25 423.35-32 427.1-32 427.1-25 433.75-25 433.75-21.5 427.1-21.5 427.1-8.05Q427.1-5.75 428.08-4.7 429.05-3.65 430.58-3.45 432.1-3.25 433.75-3.45L433.75-3.45 433.75-0.2Q431.8 0.25 429.93 0.05 428.05-0.15 426.58-1.07 425.1-2 424.23-3.7 423.35-5.4 423.35-8.05L423.35-8.05 423.35-21.5 419.6-21.5 419.6-25ZM463.4 0.35L463.4 0.35Q459.75 0.35 457-1.25 454.25-2.85 452.72-5.73 451.2-8.6 451.2-12.4L451.2-12.4Q451.2-16.25 452.72-19.18 454.25-22.1 457-23.73 459.75-25.35 463.4-25.35L463.4-25.35Q467.25-25.35 470.15-23.58 473.05-21.8 474.35-18.65L474.35-18.65 470.9-17.45Q470.15-19.45 468.17-20.63 466.2-21.8 463.6-21.8L463.6-21.8Q461.05-21.8 459.17-20.65 457.3-19.5 456.27-17.4 455.25-15.3 455.25-12.45L455.25-12.45Q455.25-8.25 457.5-5.73 459.75-3.2 463.5-3.2L463.5-3.2Q466.05-3.2 468.05-4.35 470.05-5.5 471-7.45L471-7.45 474.4-6.25Q473.05-3.15 470.15-1.4 467.25 0.35 463.4 0.35ZM493.94 0L493.94-36 497.69-36 497.69-21.6Q498.89-23.4 500.94-24.38 502.99-25.35 505.54-25.35L505.54-25.35Q508.29-25.35 510.44-24.1 512.59-22.85 513.82-20.4 515.04-17.95 515.04-14.3L515.04-14.3 515.04 0 511.04 0 511.04-13.85Q511.04-17.75 509.39-19.83 507.74-21.9 504.59-21.9L504.59-21.9Q501.34-21.9 499.52-19.7 497.69-17.5 497.69-13.3L497.69-13.3 497.69 0 493.94 0ZM533.74 7.25L537.44-6.05 541.84-6.05 536.44 7.25 533.74 7.25ZM613.03-35L613.03-31.5 594.08-31.5 594.08-19.55 608.33-19.55 608.33-16.05 594.08-16.05 594.08-3.5 613.03-3.5 613.03 0 590.08 0 590.08-35 613.03-35ZM633.53 0L633.53-25 636.98-25 637.18-21.45Q638.38-23.3 640.33-24.33 642.28-25.35 644.88-25.35L644.88-25.35Q647.73-25.35 649.88-24.13 652.03-22.9 653.23-20.48 654.43-18.05 654.43-14.4L654.43-14.4 654.43 0 650.68 0 650.68-13.95Q650.68-17.85 649-19.88 647.33-21.9 644.18-21.9L644.18-21.9Q640.93-21.9 639.1-19.75 637.28-17.6 637.28-13.4L637.28-13.4 637.28 0 633.53 0ZM675.62-25L675.62-0.65Q675.62 2.55 674.02 4.42 672.42 6.3 669.52 6.55L669.52 6.55 670.07 10Q672.57 9.9 674.7 8.63 676.82 7.35 678.1 5 679.37 2.65 679.37-0.6L679.37-0.6 679.37-25 675.62-25ZM677.52-30L677.52-30Q676.42-30 675.65-30.75 674.87-31.5 674.87-32.6L674.87-32.6Q674.87-33.75 675.65-34.5 676.42-35.25 677.52-35.25L677.52-35.25Q678.62-35.25 679.37-34.5 680.12-33.75 680.12-32.6L680.12-32.6Q680.12-31.5 679.37-30.75 678.62-30 677.52-30ZM711.82 0.35L711.82 0.35Q708.27 0.35 705.47-1.2 702.67-2.75 701.07-5.63 699.47-8.5 699.47-12.45L699.47-12.45Q699.47-16.45 701.09-19.35 702.72-22.25 705.54-23.8 708.37-25.35 711.92-25.35L711.92-25.35Q715.47-25.35 718.29-23.8 721.12-22.25 722.74-19.38 724.37-16.5 724.37-12.55L724.37-12.55Q724.37-8.55 722.72-5.65 721.07-2.75 718.22-1.2 715.37 0.35 711.82 0.35ZM711.77-3.2L711.77-3.2Q713.97-3.2 715.92-4.17 717.87-5.15 719.09-7.23 720.32-9.3 720.32-12.5L720.32-12.5Q720.32-15.75 719.12-17.8 717.92-19.85 715.99-20.83 714.07-21.8 711.87-21.8L711.87-21.8Q709.67-21.8 707.77-20.83 705.87-19.85 704.69-17.78 703.52-15.7 703.52-12.5L703.52-12.5Q703.52-9.25 704.67-7.2 705.82-5.15 707.69-4.17 709.57-3.2 711.77-3.2ZM752.61-4.8L760.36-25 764.26-25 749.96 10 746.36 10 750.61-0.35 740.51-25 744.61-25 752.61-4.8Z" opacity="1" transform="matrix(1,0,0,1,0,0)" fill="#b2bbda" class="slogan-text-1" data-fill-palette-color="secondary" id="text-1"></path></svg></g></svg></g></svg></g></svg></g><g transform="matrix(1,0,0,1,93.89022139010844,0)"><svg viewBox="0 0 56.65091721978312 61.33966579030173" height="61.33966579030173" width="56.65091721978312"><g><svg xmlns="http://www.w3.org/2000/svg" xmlns:xlink="http://www.w3.org/1999/xlink" version="1.1" x="0" y="0" viewBox="18 15.075 64 69.297" enable-background="new 0 0 100 100" xml:space="preserve" height="61.33966579030173" width="56.65091721978312" class="icon-icon-0" data-fill-palette-color="accent" id="icon-0"><g fill="#2d4031" data-fill-palette-color="accent"><path fill="#2d4031" d="M50 22.372C66.542 22.372 80 35.83 80 52.372S66.542 82.372 50 82.372 20 68.914 20 52.372 33.458 22.372 50 22.372M50 20.372C32.327 20.372 18 34.699 18 52.372S32.327 84.372 50 84.372 82 70.045 82 52.372 67.673 20.372 50 20.372" data-fill-palette-color="accent"></path><rect x="42" y="15.075" fill="#2d4031" width="16" height="2.517" data-fill-palette-color="accent"></rect><path fill="#2d4031" d="M80.011 35.359L79.556 34.622C79.256 34.174 78.875 33.436 78.333 32.726L77.479 31.541C77.19 31.113 76.799 30.705 76.443 30.258 76.073 29.82 75.71 29.35 75.278 28.928L74.012 27.61 72.657 26.385C72.222 25.966 71.741 25.618 71.292 25.261 70.834 24.917 70.42 24.543 69.975 24.261L68.746 23.432C67.996 22.9 67.3 22.572 66.846 22.288L66.117 21.868 67.053 20.1S67.374 20.183 67.92 20.374L68.901 20.734C69.287 20.867 69.715 21.03 70.147 21.272 70.591 21.494 71.072 21.74 71.568 22.023 72.076 22.288 72.561 22.642 73.073 22.997 73.575 23.363 74.134 23.698 74.607 24.151L76.101 25.458 77.451 26.913C77.915 27.376 78.27 27.921 78.65 28.413 79.023 28.916 79.38 29.383 79.673 29.895 79.98 30.392 80.243 30.876 80.485 31.319 80.75 31.759 80.916 32.17 81.05 32.532L81.422 33.47C81.621 33.994 81.712 34.308 81.712 34.308z" data-fill-palette-color="accent"></path><circle fill="#2d4031" cx="50" cy="52.372" r="3.5" data-fill-palette-color="accent"></circle><polygon fill="#2d4031" points="48.499,50.871 69.166,32.499 69.873,33.206 51.502,53.874  " data-fill-palette-color="accent"></polygon><polygon fill="#2d4031" points="48.593,53.962 36.554,41.149 37.216,40.4 51.406,50.78  " data-fill-palette-color="accent"></polygon></g></svg></g></svg></g><g></g></svg></g></svg></g><g><path d="M92.052 62.261A122.216 122.216 0 0 1 303.468 62.261L301.309 62.261A120.057 120.057 0 0 0 94.211 62.261L92.052 62.261M92.052 184.939A122.216 122.216 0 0 0 303.468 184.939L301.309 184.939A120.057 120.057 0 0 1 94.211 184.939L92.052 184.939" fill="#b2bbda" stroke="transparent" data-fill-palette-color="tertiary"></path></g></svg></g><defs></defs></svg><rect width="395.52" height="247.2" fill="none" stroke="none" visibility="hidden"></rect></g></svg></g></svg>